<?xml version="1.0" encoding="UTF-8" standalone="no"?>
<svg xmlns="http://www.w3.org/2000/svg" viewBox="0 0 36 36">
<style>
	g path { stroke: none; }
	g line { stroke: black; }
	g circle { stroke: black; }
	g polyline { stroke: black; }
</style>
<g class="root" id="home" data-name="home">
	<path d="M17.966 3.603a0.967 0.967 0 0 0-0.532 0.183l-17.095 13.496a0.931 0.931 0 0 0-0.154 1.279a0.945 0.945 0 0 0 1.279 0.141l16.534-13.054l16.534 13.054a0.904 0.904 0 0 0 1.123-1.42l-17.095-13.496A1.029 1.029-22.13 0 0 17.966 3.603Zm-11.22 12.104l-1.798 1.42v14.369a0.9 0.9 0 0 0 0.9 0.9h8.098a0.9 0.9 0 0 0 0.9-0.9v-8.098h6.298v8.098a0.9 0.9 0 0 0 0.9 0.9h8.098a0.9 0.9 0 0 0 0.9-0.9v-14.369l-1.798-1.42v14.887H22.942V22.492a0.9 0.9 0 0 0-0.9-0.9h-8.098a0.9 0.9 0 0 0-0.9 0.9v8.098H6.747Z" />
</g>
</svg>