<?xml version="1.0" encoding="UTF-8" standalone="no"?>
<svg xmlns="http://www.w3.org/2000/svg" viewBox="0 0 36 36">
<style>
	g path { stroke: none; }
	g line { stroke: black; }
	g circle { stroke: black; }
	g polyline { stroke: black; }
</style>
<g class="root" id="location_pin" data-name="location-pin">
	<path d="M17.996 36a1.211 1.211 0 0 0 1.002-0.56c0.419-0.624 10.238-15.376 10.238-22.952a11.298 11.298 0 1 0-22.47 0c0 7.575 9.817 22.326 10.238 22.952A1.211 1.211-1492.022 0 0 17.996 36Zm0-33.189a9.258 9.258 0 0 1 8.74 9.681c0 4.944-5.618 14.82-8.74 19.758-3.132-4.944-8.74-14.816-8.74-19.758A9.255 9.255-1492.022 0 1 17.996 2.811Zm4.995 9.681A5.022 5.022-1492.022 1 0 17.996 18.022A5.289 5.289-1492.022 0 0 22.996 12.49Zm-7.494 0A2.51 2.51-1492.022 1 1 17.996 15.256A2.644 2.644-1492.022 0 1 15.503 12.49Z" />
</g>
</svg>