<?xml version="1.0" encoding="UTF-8" standalone="no"?>
<svg xmlns="http://www.w3.org/2000/svg" viewBox="0 0 24 24">
<style>
	g path { stroke: none; }
	g.root { display: none; }
	g.root:target { display: inline; }
	g line { stroke: black; }
	g circle { stroke: black; }
	g polyline { stroke: black; }
</style>
<g class="root" id="check" data-name="check">
	<path d="M7.191 20.955a10.055 10.055 0 0 1-4.8-6.084a10.006 10.006 0 0 1 0.912-7.689a10.156 10.156 0 0 1 8.859-5.176a10.178 10.178 0 0 1 4.949 1.289a0.544 0.544 0 0 1 0.258 0.332a0.544 0.544 0 0 1-0.049 0.42a0.552 0.552 0 0 1-0.482 0.281a0.52 0.52 0 0 1-0.268-0.072a9.075 9.075 0 0 0-4.414-1.146a9.028 9.028 0 0 0-1.816 0.186a8.972 8.972 0 0 0-5.729 3.869a8.934 8.934 0 0 0-1.316 6.777a9.064 9.064 0 0 0 8.852 7.219a9.122 9.122 0 0 0 1.824-0.187a8.984 8.984 0 0 0 5.734-3.869a8.95 8.95 0 0 0 1.311-6.781a0.539 0.539 0 0 1 0.08-0.412a0.531 0.531 0 0 1 0.35-0.232a0.437 0.437 0 0 1 0.109-0.01a0.547 0.547 0 0 1 0.537 0.436a10.381 10.381 0 0 1 0.205 2.029a10.154 10.154 0 0 1-1.293 4.939a10.168 10.168 0 0 1-8.863 5.176A10.146 10.146-19828 0 1 7.191 20.955Zm4.568-6.52l-3.838-3.826a0.555 0.555 0 0 1-0.162-0.391a0.533 0.533 0 0 1 0.162-0.387a0.55 0.55 0 0 1 0.389-0.164a0.539 0.539 0 0 1 0.387 0.164l3.451 3.438l9.205-9.182a0.547 0.547 0 0 1 0.389-0.162a0.546 0.546 0 0 1 0.389 0.158a0.566 0.566 0 0 1 0.162 0.393a0.541 0.541 0 0 1-0.162 0.385l-9.592 9.574a0.568 0.568 0 0 1-0.391 0.158A0.553 0.553-19828 0 1 11.76 14.436Z" />
</g>
<g class="root" id="close" data-name="close">
	<path d="M13.388 12L19.717 18.329C20.101 18.712 20.101 19.334 19.717 19.717C19.334 20.101 18.713 20.101 18.329 19.717L12 13.388L5.671 19.717C5.287 20.101 4.666 20.101 4.283 19.717C3.899 19.334 3.899 18.712 4.283 18.329L10.612 12L4.283 5.671C3.899 5.287 3.899 4.666 4.283 4.283C4.666 3.899 5.287 3.899 5.671 4.283L12 10.612L18.329 4.283C18.713 3.899 19.334 3.899 19.717 4.283C20.101 4.666 20.101 5.287 19.717 5.671L13.388 12Z" />
</g>
<g class="root" id="lock_thicc" data-name="Lock_Thicc">
	<path xmlns="http://www.w3.org/2000/svg" d="M19 24L5 24C3.895 24 3 23.105 3 22L3 11C3 9.895 3.895 9 5 9L6 9L6 6C6 2.686 8.686 0 12 0C15.314 0 18 2.686 18 6L18 9L19 9C20.105 9 21 9.895 21 11L21 22C21 23.105 20.105 24 19 24ZM16 6C16 3.791 14.209 2 12 2C9.791 2 8 3.791 8 6L8 9L16 9L16 6ZM19 11L18 11L6 11L5 11L5 22L19 22L19 11ZM11.5 13L12.5 13C13.328 13 14 13.671 14 14.5L14 15.5C14 16.159 13.573 16.712 12.983 16.914C12.985 16.943 13 16.969 13 17L13 19C13 19.552 12.552 20 12 20C11.448 20 11 19.552 11 19L11 17C11 16.969 11.015 16.943 11.018 16.914C10.427 16.712 10 16.159 10 15.5L10 14.5C10 13.671 10.672 13 11.5 13Z" />
</g>
<g class="root" id="play" data-name="play">
	<path d="M1.41 21.114a2.816 2.816 0 0 0 4.195 2.525l15.564-9.156a2.885 2.885 0 0 0 0-4.973l-15.564-9.143A2.809 2.809-39.548 0 0 1.41 2.884Z" />
</g>
</svg>